<svg xmlns="http://www.w3.org/2000/svg" width="256" height="256" viewBox="0 0 256 256">
  <defs>
    <linearGradient id="g" x1="0" y1="0" x2="1" y2="1">
      <stop offset="0" stop-color="#fbd000"/>
      <stop offset="1" stop-color="#ff5bd6"/>
    </linearGradient>
  </defs>
  <rect x="20" y="20" width="216" height="216" rx="40" fill="url(#g)" stroke="#1b1020" stroke-width="14"/>
  <circle cx="128" cy="110" r="38" fill="#ffffff" opacity="0.22"/>
  <path d="M96 118c0-20 14-34 32-34s32 12 32 28c0 10-6 18-14 22-6 3-8 6-8 14v8h-20v-10c0-14 6-22 18-28 4-2 6-4 6-8 0-6-6-10-14-10s-14 6-14 16H96z" fill="#1b1020" opacity="0.75"/>
  <rect x="118" y="170" width="20" height="20" rx="6" fill="#1b1020" opacity="0.75"/>
</svg>
